HIERARCHY
ROOT Hips
{
  OFFSET 0.382225 96.6805 0.598322
  CHANNELS 6 Xposition Yposition Zposition Zrotation Xrotation Yrotation
  JOINT Spine
  {
    OFFSET 10.8089 -0.851416 0
    CHANNELS 3 Zrotation Xrotation Yrotation
    JOINT Spine1
    {
      OFFSET 18.8753 3.80116 0
      CHANNELS 3 Zrotation Xrotation Yrotation
      JOINT Spine2
      {
        OFFSET 13.4073 0.420477 0
        CHANNELS 3 Zrotation Xrotation Yrotation
        JOINT LeftShoulder
        {
          OFFSET 11.8837 -2.73209 -3.78198
          CHANNELS 3 Zrotation Xrotation Yrotation
          JOINT LeftArm
          {
            OFFSET 15.7849 0 -2.35849e-005
            CHANNELS 3 Zrotation Xrotation Yrotation
            JOINT LeftForeArm
            {
              OFFSET 30.3399 0 0
              CHANNELS 3 Zrotation Xrotation Yrotation
              JOINT LeftHand
              {
                OFFSET 26.9751 0 2.45913e-005
                CHANNELS 3 Zrotation Xrotation Yrotation
                End Site
                {
                  OFFSET 8 0 0
                }
              }
            }
          }
        }
        JOINT RightShoulder
        {
          OFFSET 11.8838 -2.7321 3.782
          CHANNELS 3 Zrotation Xrotation Yrotation
          JOINT RightArm
          {
            OFFSET -15.7848 0 -1.07056e-005
            CHANNELS 3 Zrotation Xrotation Yrotation
            JOINT RightForeArm
            {
              OFFSET -30.34 1.02096e-005 -2.53607e-005
              CHANNELS 3 Zrotation Xrotation Yrotation
              JOINT RightHand
              {
                OFFSET -26.9752 2.07668e-005 0
                CHANNELS 3 Zrotation Xrotation Yrotation
                End Site
                {
                  OFFSET -8 0 0
                }
              }
            }
          }
        }
        JOINT Neck
        {
          OFFSET 16.5588 -0.355318 0
          CHANNELS 3 Zrotation Xrotation Yrotation
          JOINT Head
          {
            OFFSET 9.28361 0.364157 0
            CHANNELS 3 Zrotation Xrotation Yrotation
            End Site
            {
              OFFSET 0 0 0
            }
          }
        }
      }
    }
  }
  JOINT LeftUpLeg
  {
    OFFSET -1.44883 -0.531424 -9.00581
    CHANNELS 3 Zrotation Xrotation Yrotation
    JOINT LeftLeg
    {
      OFFSET -42.572 0.0788889 -0.011964
      CHANNELS 3 Zrotation Xrotation Yrotation
      JOINT LeftFoot
      {
        OFFSET -40.1967 0 0
        CHANNELS 3 Zrotation Xrotation Yrotation
				JOINT LeftToe
        {
          OFFSET -10.4538 -16.5779 0.0801563
          CHANNELS 3 Zrotation Xrotation Yrotation
          End Site
          {
            OFFSET -1.0 -1.0 0.0
          }
        }
      }
    }
  }
  JOINT RightUpLeg
  {
    OFFSET -1.44865 -0.531427 9.0058
    CHANNELS 3 Zrotation Xrotation Yrotation
    JOINT RightLeg
    {
      OFFSET 42.5723 -3.24776e-005 0
      CHANNELS 3 Zrotation Xrotation Yrotation
      JOINT RightFoot
      {
        OFFSET 40.1968 0 -1.14003e-005
        CHANNELS 3 Zrotation Xrotation Yrotation
				JOINT RightToe
        {
          OFFSET 10.4538 16.5778 -0.0801573
          CHANNELS 3 Zrotation Xrotation Yrotation
          End Site
          {
            OFFSET -1.0 -1.0 0.0
          }
        }
      }
    }
  }
}
MOTION
Frames:	6
Frame Time:	0.0333333
101.04 49.5599 -92.7206 -47.113 -19.366 160.425 -67.5096 -6.47473 -11.82 7.08094 0.298881 0.691865 2.7794 1.93418e-006 1.65929e-005 -4.89388 -10.2489 77.4067 -56.5817 -33.7003 13.2879 -90.2067 16.01 -20.2715 -35.424 -5.11922 -54.3447 -177.677 -1.56588 78.7776 -18.5883 -52.0625 24.2394 -127.44 -6.10605 -9.40434 -10.4733 -0.770683 -7.90529 -23.508 4.63459e-006 -5.90926e-006 -3.57751 -16.4572 9.796 49.0373 17.5866 -32.7241 -77.4972 -1.63652 -3.93591 0.979576 -2.35604 18.5387 -90 0 0 -104.293 2.84708 -17.6617 -139.922 9.19277 -2.92417 34.6219 29.1024 -4.67908 -90 0 0
101.674 49.7683 -92.8976 -48.4494 -21.8711 161.117 -68.2671 -8.53362 -10.8366 9.11008 0.220763 0.487147 2.7794 1.93418e-006 1.65929e-005 -5.93706 -11.7086 74.5726 -58.2934 -32.1532 13.1989 -86.4007 13.9792 -20.2835 -34.9749 -2.81268 -54.7753 -177.701 -3.07121 79.5652 -22.3143 -52.1726 22.9995 -121.162 -6.6151 -9.14003 -17.167 0.630952 -7.12714 -23.508 4.63459e-006 -5.90926e-006 -6.19338 -15.6926 7.7872 57.7413 16.844 -36.4974 -84.9961 -0.921808 -4.08108 4.83826 -3.98868 19.8441 -90 0 0 -104.162 3.64056 -20.1989 -140.152 9.26603 -2.89313 32.7245 26.6047 -4.56722 -90 0 0
102.301 50.0461 -92.8053 -50.1028 -23.8016 161.339 -68.9223 -10.864 -9.10542 10.0639 0.181558 0.39192 2.7794 1.93418e-006 1.65929e-005 -6.763 -14.1285 73.5857 -60.6318 -30.6967 10.7914 -81.7052 11.4576 -20.1064 -34.4746 -1.7293 -53.8338 -177.683 -3.80376 79.429 -26.2311 -54.7633 21.0717 -113.541 -7.19211 -8.74802 -20.9048 -2.17372 -5.52095 -23.508 4.63459e-006 -5.90926e-006 -6.71426 -15.4509 5.61134 66.5445 15.867 -38.9127 -92.5286 -0.125422 -4.10714 7.87357 -4.77027 18.1809 -90 0 0 -104.339 3.85353 -22.6647 -140.421 9.32758 -2.86007 31.1494 24.5338 -3.92987 -90 0 0
102.879 50.3432 -92.3417 -51.501 -25.2396 161.608 -69.7029 -13.7591 -7.20606 11.0231 0.140501 0.296777 2.7794 1.93418e-006 1.65929e-005 -7.55439 -16.2302 72.7237 -61.6046 -30.5715 10.2517 -78.2375 9.59812 -19.8404 -34.347 -1.69296 -53.9507 -177.663 -4.86726 78.995 -31.1872 -57.5839 18.2263 -105.537 -7.72711 -8.25409 -21.9874 -6.82372 -6.60651 -23.508 4.63459e-006 -5.90926e-006 -6.4659 -14.837 3.57813 76.1717 14.991 -40.7574 -99.6787 0.547161 -4.02007 10.7424 -5.38273 17.8142 -90 0 0 -104.554 3.60778 -24.9683 -140.687 9.38394 -2.83065 29.7933 22.5151 -2.72189 -90 0 0
103.331 50.6258 -91.3469 -52.7632 -25.9669 162.037 -70.4752 -15.9395 -5.27138 11.611 0.114583 0.238838 2.7794 1.93418e-006 1.65929e-005 -8.08969 -18.0614 72.5001 -60.7976 -32.4478 12.3378 -78.0023 9.47237 -19.8183 -37.9871 -5.95675 -55.1332 -177.645 -5.31009 77.7735 -35.9304 -59.9838 13.0129 -98.8808 -8.1213 -7.79108 -23.8715 -18.6243 -6.39927 -23.508 4.63459e-006 -5.90926e-006 -4.96926 -14.5727 1.56201 86.2379 15.0087 -42.526 -105.672 0.984239 -3.86812 13.5583 -6.56832 18.8324 -90 0 0 -105.326 2.95551 -26.9895 -140.817 9.42109 -2.82262 28.7572 20.9186 -1.02339 -90 0 0
103.679 50.8564 -89.9589 -53.5711 -26.2004 162.685 -70.703 -16.2317 -3.02547 11.8489 0.103914 0.215454 2.7794 1.93418e-006 1.65929e-005 -8.44826 -20.2921 72.9549 -59.6067 -34.3138 15.5793 -79.1101 10.0651 -19.918 -44.902 -11.3821 -58.507 -177.6 -4.96422 76.229 -45.6676 -60.895 7.00384 -87.5806 -8.65536 -6.91019 -19.9546 -6.99655 -8.74427 -23.508 4.63459e-006 -5.90926e-006 -3.09651 -16.0352 -1.07161 96.3773 16.5752 -43.9483 -108.94 1.1858 -3.76265 15.4047 -6.81653 18.8457 -90 0 0 -106.055 2.29422 -28.7799 -140.841 9.44948 -2.83181 28.2198 20.3504 0.829227 -90 0 0
